<svg id="Layer_1" data-name="Layer 1" xmlns="http://www.w3.org/2000/svg" viewBox="0 0 484 480"><defs><style>.cls-1{fill:none;}</style></defs><title>Photo-circle</title><path d="M351.3,191c-.94-3.18-4.44-4.41-7-6.15-6.3-4.26-12.79-6-20.56-3.15-3.48,1.27-7.88-.85-12-.17-2.06.35-4.27.14-6.28,1-7.43,3.1-15.37,2-23.07,2.92s-14.89,4.61-22.73,5.89c4.21,5.72,7.39,15.47,9.64,18.72,4.17,6.05,9.26,8.78,16.44,10.42,7.87,1.8,15.68,2.39,23.59,2.89,1.94.11,5.07,1.28,4.13-3.2-.44-2,2-1.5,3-1.25,7.29,1.87,14.09-1.2,21.11-1.83,7.45-.67,10.8-6.84,13.93-11.66C353.7,201.9,352.72,195.74,351.3,191Zm-15.41,9.58c-6,.06-11.75-1.37-17.44-3.08a1.74,1.74,0,0,1-1.38-1.82c.08-1,.81-1.39,1.64-1.58,3.47-.81,6.27-2.31,7.49-6.05.44-1.33,1.55-.34,2.44.06,3.4,1.53,6.64,2.25,8-3,3.11,4.31,1.6,8.62,2.44,12.58C339.54,199.88,337.53,200.54,335.89,200.56ZM351.3,191c-.94-3.18-4.44-4.41-7-6.15-6.3-4.26-12.79-6-20.56-3.15-3.48,1.27-7.88-.85-12-.17-2.06.35-4.27.14-6.28,1-7.43,3.1-15.37,2-23.07,2.92s-14.89,4.61-22.73,5.89c4.21,5.72,7.39,15.47,9.64,18.72,4.17,6.05,9.26,8.78,16.44,10.42,7.87,1.8,15.68,2.39,23.59,2.89,1.94.11,5.07,1.28,4.13-3.2-.44-2,2-1.5,3-1.25,7.29,1.87,14.09-1.2,21.11-1.83,7.45-.67,10.8-6.84,13.93-11.66C353.7,201.9,352.72,195.74,351.3,191Zm-15.41,9.58c-6,.06-11.75-1.37-17.44-3.08a1.74,1.74,0,0,1-1.38-1.82c.08-1,.81-1.39,1.64-1.58,3.47-.81,6.27-2.31,7.49-6.05.44-1.33,1.55-.34,2.44.06,3.4,1.53,6.64,2.25,8-3,3.11,4.31,1.6,8.62,2.44,12.58C339.54,199.88,337.53,200.54,335.89,200.56ZM259,13C127.56,13,21,119.56,21,251S127.56,489,259,489,497,382.44,497,251,390.44,13,259,13Zm67.32,59.56c3.39,0,4.13-2,4.85-5,.54-2.23,3.77-1.23,6-3-.37,6.52-4.75,10.74-10.18,10.94-.88,0-1.75.08-1.85-1C325.06,73.64,325.45,72.57,326.32,72.56ZM320.7,57c-1.69,4.54-5,3.18-8.1,2.67C315.61,59.94,316.86,54.51,320.7,57ZM302.27,44.75c1.34-2.54,2-4.5,5.59-2.35,3,1.8,4.15,4.71,6.07,7.42a2.87,2.87,0,0,1-4.42.94c-1.47-1.36-3.33-1.3-4.73-2.31C303.57,47.57,300.58,48,302.27,44.75ZM283.17,32c.22-1.12,1.08-1.13,1.88-.77,2.06.94,4.37.39,6.57.77-.51,2.75-3.67,1.44-4.41,3.4l.11,0a.93.93,0,0,1-.05.1c2.53-.48,4.51,1.74,7.06,1.47,1.69-.18.81,1.4,1.13,2.15.46,1.07.18,2.23-1,2.33-2.28.19-4.84.76-6.77-.64s-1.37-3.43-.44-5.31a.29.29,0,0,0-.1,0c0-.06,0-.11,0-.16a22.83,22.83,0,0,1-3.59-1.17C282.74,33.79,283,32.77,283.17,32Zm-22.06.31c1.51-.1,2.94-1.31,4.43-2,.78-.32,1.75-.49,2.1.53.16.51-.19,1.72-.41,1.75-2.81.31-5.08,1-4.18,4.64a6.84,6.84,0,0,1-1.2.5c-3.76,0-2.52-3.31-3.53-5.08C258.12,32.31,258.32,32.47,261.11,32.29ZM241.55,46.55c2.88-1.62,4.26.65,6.15,2.84-2.39-.35-4.37,2.49-6.38-.22A1.74,1.74,0,0,1,241.55,46.55ZM213.43,252.26c-4.58,9.5-7.51,19.79-13.83,28.45-1.46,2-2.52,4.29-4,6.22-2.06,2.62-4.34,3.08-6.19-.3a32.57,32.57,0,0,1-2.49-5.36c-1.47-4.42-3.13-8.69-6.73-11.89-1.39-1.23-2.65-2.59-2.09-4.72.52-4.69,6.55-10.86,11.93-12.07,6.68-1.52,13.94-.66,20-5.05a3,3,0,0,1,3.71.5C214.79,249.34,214.05,251,213.43,252.26Zm155,129.25c-7.13,11.48-16.05,21.83-24,32.82-7.65,10.58-14.76,21.55-22.65,31.94-3.69,4.86-6.1,10.71-11.41,14.47-1.88,1.35-2.44,4.55-3.59,6.91h.12l-.13.11c.42,2.76-1.15,3.56-3.56,3.59-1.51,1.88-2.31,6.36-4.75,4.91s.93-5.09,1.13-7.91c.12-1.75,2.3-1.15,3.72-.77-1.55-2.93-3.73-4.1-7.16-3.27s-4.88,3-4.12,7a9.23,9.23,0,0,1-5.4-5.49c-4.9-11.72-12.35-21.46-22.93-28.64-.93-.63-2.42-1-2-2.4s1.89-1.15,3-1.44c7.48-2.12,15.23-3.33,22.22-7,8.35-4.39,15.76-10.19,23.54-15.41,1.73-1.16,2.91-3.15,5.22-3.48,9.25-1.32,14.3-7.78,18.34-15.27a309.23,309.23,0,0,0,15.41-33.88c1.68-4.31,3.73-8.47,5.68-12.66,1.38-3,3.17-2.7,4.66-.22a25.49,25.49,0,0,1,2.56,5.92,38,38,0,0,0,5.9,11.43C376.08,373.88,374.14,372.23,368.38,381.51Zm18.09-139.79a34.42,34.42,0,0,0-1.37,11.79,34.18,34.18,0,0,1-1.72,13.25,41.45,41.45,0,0,0-2,9.7c-.52,7.17-5.3,12.49-12.18,13.59-3.85.62-5,3.33-5.06,6.34,0,10-2.61,19.56-3.93,29.34-.63,4.68-5.19,6.84-7.18,10.86-3,6.12-9.11,9.8-14.12,14.26a6.41,6.41,0,0,1-3.68,1.25c-2.91.2-4.85,1-4.32,4.5.25,1.66-.44,2.72-2.21,3.33-4.56,1.58-7.5,4.43-7,9.74.12,1.31-.68,2.63-1.91,2.42-6-1-7.46,4.2-9.89,7.49-2.61,3.52-5.11,6.4-9.83,6.31-.62,0-1.59.18-1.81.59-2.67,4.92-8.52,4.17-12.39,7-4.14,3.07-9.27,1.68-14,1.3-4.47-.35-9.34,1.45-13.16-3.26-1.59-2-5.38-1.27-8.11-.61a14.36,14.36,0,0,1-15.3-5.31c-5.37-7.68-5-7.1,2.86-11.89,5.16-3.13,10.44-3.68,16-4.49,10.87-1.6,17.76-8.09,21.77-17.94,1.26-3.09-1.21-5.73-4.7-4.54s-5.91.23-8.76-1.28c-7.32-3.85-15.59-2.59-23.37-4-2.44-.45-6.17.49-6.28-3.2-.11-3.93,2.88-6.41,6.68-6.81,17.29-1.84,34.6-3.72,51.74,1.41A17.61,17.61,0,0,0,306.48,331c2.43-1.55,3.64-3.05,3.72-5.82.09-3.52-.09-6.38-4.78-3.64-1.87,1.09-3.62.05-5-1.07-1.63-1.27-3.06-2.57-5.32-1.64-.27.12-.86.13-.95,0-4.17-7.44-7.53.06-10.24,1.28-3.83,1.73-7.19,2.25-10.84,1.07-6.65-2.15-13.22-2.85-20-.57-2,.68-4.38,1.16-6.17-.44-1.3-1.14-3.92-1.66-3.55-3.74.41-2.36,2.9-.52,4.19-1.18,5.5-2.75,13.4-2.39,13.61-11.86.07-3.7,4.17-6.28,6.91-8.77,3.85-3.52,4.89-8.58,7.95-12.5,1.5-1.93-.5-2.93-2.22-3.31-6.76-1.48-13.36-2.51-20.56-1.79-14.57,1.41-28.35-5.66-29.39-21.12a18.72,18.72,0,0,1,3.38-12.75c5.23-6.78,6.32-14.33,6.59-22.42.29-8.41,4.81-22.46,11.38-29.45a39.78,39.78,0,0,1-11-3.82c-5.65-2.94-11.06-3.87-17-2.43-3.6.88-6.72.23-10.39-.89a54.85,54.85,0,0,1-16.9-8.72c-8.07-5.95-10.4-13-6.14-22.09a13.51,13.51,0,0,0,1.39-4.22,21.6,21.6,0,0,1,3.82-11c2-2.84,1.72-6.28,1.68-9.62-.18-11,3.34-14.92,14.09-16.51,4-.59,7.29-3.62,11.48-4.08,1.13-.12,2.2-.56,3.37-.21,12.09,3.62,24.09.8,35.16-3,6.07-2.08,12-.37,17.65-2.79,2-.87,4.43-.42,5.82-3,.88-1.65,2.3-2.49,4.74-.53,2.25,1.81,6.18,2.19,9,1.06,2.33-.92,4.74-1.8,7-1.67,7.63.43,13.92-3.42,20.72-5.67.52-.16,1,.25.6-1-.6-1.87.95-3.56,2.57-4.17a18.81,18.81,0,0,1,18.43,2.91,61.11,61.11,0,0,1,11.6,12.59c2.21,3.35,3.35,8.25,6.38,10,5.87,3.38,4.36,8.86,4.68,13.13.56,7,1.51,14.18.94,21.19-1.25,15.35.43,30.4,2.78,45.5,2.37,15.26,3.17,30.7,3.85,46.1.28,6.6-1.5,13.15-3.17,19.59-.69,2.66-1.43,5.37-.41,8.52,4.79-3.61,6.19-8.4,6.79-13.57a143.83,143.83,0,0,0,.74-19.36,21.2,21.2,0,0,1,.87-5.37c.46-1.81,1.29-3.1,3.48-1.57,2,1.37,3.81.84,5.25-1s2.79-3.92,2.12-6.36c-.54-2-2.12-3-4.24-2.09a24,24,0,0,0-2.38,1.77c-1.71,1-2.19,4.79-4.6,3.4-2.17-1.24-1.7-4.48-1.4-7,.69-5.42,3.13-8,7.18-7.92s7.88,4.09,8.1,9.21C390.12,225.16,388.63,233.51,386.47,241.72Zm-42.2-56.89c-6.3-4.26-12.79-6-20.56-3.15-3.48,1.27-7.88-.85-12-.17-2.06.35-4.27.14-6.28,1-7.43,3.1-15.37,2-23.07,2.92s-14.89,4.61-22.73,5.89c4.21,5.72,7.39,15.47,9.64,18.72,4.17,6.05,9.26,8.78,16.44,10.42,7.87,1.8,15.68,2.39,23.59,2.89,1.94.11,5.07,1.28,4.13-3.2-.44-2,2-1.5,3-1.25,7.29,1.87,14.09-1.2,21.11-1.83,7.45-.67,10.8-6.84,13.93-11.66,2.28-3.51,1.3-9.67-.12-14.43C350.36,187.8,346.86,186.57,344.27,184.83Zm-8.38,15.73c-6,.06-11.75-1.37-17.44-3.08a1.74,1.74,0,0,1-1.38-1.82c.08-1,.81-1.39,1.64-1.58,3.47-.81,6.27-2.31,7.49-6.05.44-1.33,1.55-.34,2.44.06,3.4,1.53,6.64,2.25,8-3,3.11,4.31,1.6,8.62,2.44,12.58C339.54,199.88,337.53,200.54,335.89,200.56ZM351.3,191c-.94-3.18-4.44-4.41-7-6.15-6.3-4.26-12.79-6-20.56-3.15-3.48,1.27-7.88-.85-12-.17-2.06.35-4.27.14-6.28,1-7.43,3.1-15.37,2-23.07,2.92s-14.89,4.61-22.73,5.89c4.21,5.72,7.39,15.47,9.64,18.72,4.17,6.05,9.26,8.78,16.44,10.42,7.87,1.8,15.68,2.39,23.59,2.89,1.94.11,5.07,1.28,4.13-3.2-.44-2,2-1.5,3-1.25,7.29,1.87,14.09-1.2,21.11-1.83,7.45-.67,10.8-6.84,13.93-11.66C353.7,201.9,352.72,195.74,351.3,191Zm-15.41,9.58c-6,.06-11.75-1.37-17.44-3.08a1.74,1.74,0,0,1-1.38-1.82c.08-1,.81-1.39,1.64-1.58,3.47-.81,6.27-2.31,7.49-6.05.44-1.33,1.55-.34,2.44.06,3.4,1.53,6.64,2.25,8-3,3.11,4.31,1.6,8.62,2.44,12.58C339.54,199.88,337.53,200.54,335.89,200.56Z" transform="translate(-21 -9)"/><circle class="cls-1" cx="246" cy="238" r="238"/></svg>